<?xml version="1.0" encoding="UTF-8"?>
<!DOCTYPE svg PUBLIC "-//W3C//DTD SVG 1.1//EN" "http://www.w3.org/Graphics/SVG/1.1/DTD/svg11.dtd">
<!-- Creator: CorelDRAW 2021 (64 Bit) -->
<svg xmlns="http://www.w3.org/2000/svg" xml:space="preserve" width="198.506mm" height="39.4946mm" version="1.1" style="shape-rendering:geometricPrecision; text-rendering:geometricPrecision; image-rendering:optimizeQuality; fill-rule:evenodd; clip-rule:evenodd"
viewBox="0 0 426.35 84.83"
 xmlns:xlink="http://www.w3.org/1999/xlink"
 xmlns:xodm="http://www.corel.com/coreldraw/odm/2003">
 <defs>
  <style type="text/css">
   <![CDATA[
    .fil0 {fill:#FDFDFD;fill-rule:nonzero}
    .fil1 {fill:url(#id0);fill-rule:nonzero}
   ]]>
  </style>
  <linearGradient id="id0" gradientUnits="userSpaceOnUse" x1="263.31" y1="52.07" x2="473.37" y2="15.08">
   <stop offset="0" style="stop-opacity:1; stop-color:#5728C0"/>
   <stop offset="0.329412" style="stop-opacity:1; stop-color:#678ADE"/>
   <stop offset="1" style="stop-opacity:1; stop-color:#78ECFD"/>
  </linearGradient>
 </defs>
 <g id="Camada_x0020_1">
  <metadata id="CorelCorpID_0Corel-Layer"/>
  <g id="_1692087084736">
   <path class="fil0" d="M41.83 84.83c23.29,0 38.94,-13.79 38.94,-32.68l-17.73 0c-1.39,10.78 -8.23,17.5 -21.21,17.5 -15.41,0 -23.18,-9.73 -23.18,-27.23 0,-17.5 7.76,-27.23 23.18,-27.23 13.21,0 19.82,7.18 21.21,16.8l17.73 0c0,-18.54 -16.11,-31.98 -38.94,-31.98 -26.42,0 -41.83,17.27 -41.83,42.41 0,25.15 15.41,42.41 41.83,42.41zm101.98 -1.16l0 -39.52c0,-14.49 -6.95,-21.44 -20.63,-21.44 -8.69,0 -13.67,3.59 -16.8,8.81l0 -30.36 -17.73 0 0 82.51 17.73 0 0 -33.37c0,-8.58 4.4,-13.33 11.12,-13.33 6.03,0 8.58,3.71 8.58,10.66l0 36.04 17.73 0zm29.67 1.16c9.97,0 15.53,-3.24 18.89,-9.5 0,3.94 0.93,6.26 2.55,8.34l16.11 0c-1.16,-1.97 -1.85,-7.18 -1.85,-15.3l0 -25.26c0,-12.4 -7.88,-20.4 -27.12,-20.4 -19.24,0 -27.12,8 -27.12,20.4l17.61 0c0.58,-5.33 3.82,-8 9.73,-8 6.03,0 9.15,2.9 9.15,8 0,2.55 -1.39,4.06 -6.37,4.52l-12.75 1.04c-15.3,1.27 -20.63,8.81 -20.63,18.08 0,11.01 7.53,18.08 21.79,18.08zm5.22 -11.82c-6.49,0 -9.27,-3.01 -9.27,-7.53 0,-3.71 2.55,-6.37 9.15,-6.95l6.49 -0.46c3.24,-0.35 5.56,-0.93 6.37,-1.85l0 3.36c0,7.3 -4.64,13.44 -12.75,13.44zm63.85 11.36c2.78,0 8,-0.46 10.66,-0.7l0 -11.82 -6.26 0c-4.17,0 -6.03,-1.51 -6.03,-5.68l0 -29.9 12.28 0 0 -12.4 -12.28 0 0 -18.08 -17.61 0 0 18.08 -9.04 0 0 12.4 9.04 0 0 29.2c0,14.25 4.64,18.89 19.24,18.89z"/>
   <path class="fil1" d="M304.9 84.83c23.52,0 35.11,-10.78 35.11,-25.96 0,-14.95 -9.73,-21.44 -27,-23.99l-9.62 -1.27c-10.43,-1.51 -12.86,-3.82 -12.86,-9.04 0,-6.26 4.17,-10.66 13.91,-10.66 9.73,0 14.72,4.4 15.76,12.98l17.73 0c0,-16.11 -11.01,-26.88 -33.03,-26.88 -22.02,0 -33.03,10.89 -33.03,25.73 0,14.37 7.3,20.28 24.8,22.71l9.62 1.39c12.05,1.74 15.06,4.98 15.06,10.2 0,6.26 -5.1,10.89 -15.99,10.89 -11.36,0 -16.11,-4.29 -17.27,-14.14l-18.31 0c0,17.73 11.59,28.04 35.11,28.04zm82.51 0c23.29,0 38.94,-13.79 38.94,-32.68l-17.73 0c-1.39,10.78 -8.23,17.5 -21.21,17.5 -15.41,0 -23.18,-9.73 -23.18,-27.23 0,-17.5 7.76,-27.23 23.18,-27.23 13.21,0 19.82,7.18 21.21,16.8l17.73 0c0,-18.54 -16.11,-31.98 -38.94,-31.98 -26.42,0 -41.83,17.27 -41.83,42.41 0,25.15 15.41,42.41 41.83,42.41z"/>
  </g>
 </g>
</svg>
